<svg width="50" height="50" viewBox="0 0 50 50" fill="none" xmlns="http://www.w3.org/2000/svg">
<g id="Group" clip-path="url(#clip0_8818_28673)">
<path id="Vector" d="M18.875 16.6875C18.15 16.6875 17.5625 16.1 17.5625 15.375V12.75C17.5625 12.025 18.15 11.4375 18.875 11.4375C19.6 11.4375 20.1875 12.025 20.1875 12.75V15.375C20.1875 16.1 19.6 16.6875 18.875 16.6875Z" fill="#CDCFD6"/>
<path id="Vector_2" d="M7.5 25.4375C6.77497 25.4375 6.1875 24.85 6.1875 24.125V21.5C6.1875 20.775 6.77497 20.1875 7.5 20.1875C8.22503 20.1875 8.8125 20.775 8.8125 21.5V24.125C8.8125 24.85 8.22503 25.4375 7.5 25.4375Z" fill="#CDCFD6"/>
<path id="Vector_3" d="M42.5 25.4375C41.775 25.4375 41.1875 24.85 41.1875 24.125V21.5C41.1875 20.775 41.775 20.1875 42.5 20.1875C43.225 20.1875 43.8125 20.775 43.8125 21.5V24.125C43.8125 24.85 43.225 25.4375 42.5 25.4375Z" fill="#CDCFD6"/>
<path id="Vector_4" d="M25 16.6875C24.275 16.6875 23.6875 16.1 23.6875 15.375V12.75C23.6875 12.025 24.275 11.4375 25 11.4375C25.725 11.4375 26.3125 12.025 26.3125 12.75V15.375C26.3125 16.1 25.725 16.6875 25 16.6875Z" fill="#CDCFD6"/>
<path id="Vector_5" d="M31.125 16.6875C30.4 16.6875 29.8125 16.1 29.8125 15.375V12.75C29.8125 12.025 30.4 11.4375 31.125 11.4375C31.85 11.4375 32.4375 12.025 32.4375 12.75V15.375C32.4375 16.1 31.85 16.6875 31.125 16.6875Z" fill="#CDCFD6"/>
<path id="Vector_6" d="M18.875 9.6875C18.15 9.6875 17.5625 9.10003 17.5625 8.375V5.75C17.5625 5.02497 18.15 4.4375 18.875 4.4375C19.6 4.4375 20.1875 5.02497 20.1875 5.75V8.375C20.1875 9.10003 19.6 9.6875 18.875 9.6875Z" fill="#CDCFD6"/>
<path id="Vector_7" d="M25 9.6875C24.275 9.6875 23.6875 9.10003 23.6875 8.375V5.75C23.6875 5.02497 24.275 4.4375 25 4.4375C25.725 4.4375 26.3125 5.02497 26.3125 5.75V8.375C26.3125 9.10003 25.725 9.6875 25 9.6875Z" fill="#CDCFD6"/>
<path id="Vector_8" d="M31.125 9.6875C30.4 9.6875 29.8125 9.10003 29.8125 8.375V5.75C29.8125 5.02497 30.4 4.4375 31.125 4.4375C31.85 4.4375 32.4375 5.02497 32.4375 5.75V8.375C32.4375 9.10003 31.85 9.6875 31.125 9.6875Z" fill="#CDCFD6"/>
<path id="Vector_9" d="M18.875 23.6875C18.15 23.6875 17.5625 23.1 17.5625 22.375V19.75C17.5625 19.025 18.15 18.4375 18.875 18.4375C19.6 18.4375 20.1875 19.025 20.1875 19.75V22.375C20.1875 23.1 19.6 23.6875 18.875 23.6875Z" fill="#CDCFD6"/>
<path id="Vector_10" d="M25 23.6875C24.275 23.6875 23.6875 23.1 23.6875 22.375V19.75C23.6875 19.025 24.275 18.4375 25 18.4375C25.725 18.4375 26.3125 19.025 26.3125 19.75V22.375C26.3125 23.1 25.725 23.6875 25 23.6875Z" fill="#CDCFD6"/>
<path id="Vector_11" d="M31.125 23.6875C30.4 23.6875 29.8125 23.1 29.8125 22.375V19.75C29.8125 19.025 30.4 18.4375 31.125 18.4375C31.85 18.4375 32.4375 19.025 32.4375 19.75V22.375C32.4375 23.1 31.85 23.6875 31.125 23.6875Z" fill="#CDCFD6"/>
<path id="Vector_12" fill-rule="evenodd" clip-rule="evenodd" d="M36.375 28.9375C35.65 28.9375 35.0625 28.35 35.0625 27.625V6.6253V6.62254V2.6875H14.9375V13.5999C14.9378 13.6172 14.9378 13.6344 14.9375 13.6516V27.625C14.9375 28.35 14.35 28.9375 13.625 28.9375C12.9 28.9375 12.3125 28.35 12.3125 27.625V15.4659L2.6875 18.7824V30.2506C2.6875 30.9756 2.10003 31.563 1.375 31.563C0.649966 31.563 0.0625 30.9756 0.0625 30.2505V17.8463C0.0625 17.2862 0.417969 16.788 0.947326 16.6056L6.1875 14.8001V9.24966C6.1875 8.72457 6.50024 8.25033 6.98303 8.04311L12.3125 5.75874V1.375C12.3125 0.649966 12.9 0.0625 13.625 0.0625H36.375C37.1 0.0625 37.6875 0.649966 37.6875 1.375V5.75891L43.0166 8.04311C43.4993 8.25033 43.8121 8.72457 43.8121 9.24966V14.8L49.0529 16.6058C49.5823 16.7882 49.9378 17.2864 49.9378 17.8465V30.2507C49.9378 30.9757 49.3503 31.5632 48.6253 31.5632C47.9002 31.5632 47.3128 30.9758 47.3128 30.2507V18.7826L37.6875 15.466V27.625C37.6875 28.35 37.1 28.9375 36.375 28.9375ZM41.1871 13.8956V10.1153L37.6875 8.6152V12.6898L41.1871 13.8956ZM12.3125 12.6897L8.8125 13.8956V10.1153L12.3125 8.61502V12.6897Z" fill="#CDCFD6"/>
<path id="Vector_13" fill-rule="evenodd" clip-rule="evenodd" d="M20.3896 38.7073C18.6684 37.3439 17.5625 35.2362 17.5625 32.875C17.5625 28.7739 20.8989 25.4375 25 25.4375C29.1011 25.4375 32.4375 28.7739 32.4375 32.875C32.4375 35.2362 31.3316 37.3439 29.6104 38.7073C31.6209 39.6457 33.3008 41.1778 34.4232 43.0768C35.1603 42.1834 36.0683 41.4448 37.0858 40.903C35.8873 39.7975 35.1354 38.2147 35.1354 36.4596C35.1354 33.1262 37.8476 30.4141 41.1809 30.4141C44.5143 30.4141 47.2265 33.1262 47.2265 36.4596C47.2265 38.2115 46.4773 39.7918 45.2826 40.897C48.046 42.3695 49.9313 45.2811 49.9313 48.625C49.9313 49.35 49.3438 49.9375 48.6188 49.9375H39.8688C39.1438 49.9375 38.5563 49.35 38.5563 48.625C38.5563 47.9 39.1438 47.3125 39.8688 47.3125H47.1649C46.5747 44.6194 44.2073 42.5841 41.359 42.5025C41.2999 42.5043 41.2405 42.5051 41.1809 42.5051C41.1219 42.5051 41.0631 42.5043 41.0045 42.5026C38.694 42.5703 36.5961 43.9608 35.6297 46.043C35.8309 46.8712 35.9375 47.7359 35.9375 48.625C35.9375 49.35 35.35 49.9375 34.625 49.9375H15.375C14.65 49.9375 14.0625 49.35 14.0625 48.625C14.0625 47.739 14.1684 46.8773 14.3682 46.0518C13.4031 43.9637 11.301 42.569 8.98579 42.5025C8.92605 42.5042 8.8661 42.5051 8.80594 42.5051C8.74755 42.5051 8.68935 42.5043 8.63135 42.5026C5.78464 42.5857 3.41887 44.6205 2.82892 47.3125H10.125C10.85 47.3125 11.4375 47.9 11.4375 48.625C11.4375 49.35 10.85 49.9375 10.125 49.9375H1.375C0.649966 49.9375 0.0625 49.35 0.0625 48.625C0.0625 45.2829 1.94577 42.3725 4.70685 40.8993C3.51062 39.7941 2.76041 38.2127 2.76041 36.4596C2.76041 33.1262 5.47257 30.4141 8.80594 30.4141C12.1393 30.4141 14.8515 33.1262 14.8515 36.4596C14.8515 38.2134 14.1007 39.7953 12.9036 40.9007C13.9246 41.4436 14.8354 42.1846 15.5743 43.0812C16.6966 41.1801 18.3775 39.6464 20.3896 38.7073ZM17.0091 46.3316C17.0114 46.3238 17.0137 46.316 17.0159 46.3081C18.0214 42.8482 21.2202 40.3125 25 40.3125C28.7427 40.3125 31.9158 42.7988 32.9539 46.2066C32.9689 46.2833 32.9906 46.3583 33.0188 46.4308C33.0976 46.7188 33.1614 47.013 33.2091 47.3125H16.7909C16.8441 46.9785 16.9172 46.6511 17.0091 46.3316ZM25 37.6875C27.6536 37.6875 29.8125 35.5286 29.8125 32.875C29.8125 30.2214 27.6536 28.0625 25 28.0625C22.3464 28.0625 20.1875 30.2214 20.1875 32.875C20.1875 35.5286 22.3464 37.6875 25 37.6875ZM8.96699 39.8764C8.91556 39.8755 8.86406 39.875 8.8125 39.875C8.75752 39.875 8.70265 39.8755 8.64791 39.8765C6.8347 39.7937 5.38541 38.2929 5.38541 36.4596C5.38541 34.5733 6.91965 33.0391 8.80594 33.0391C10.6922 33.0391 12.2265 34.5733 12.2265 36.4596C12.2265 38.2919 10.7788 39.792 8.96699 39.8764ZM41.3409 39.8764C41.2878 39.8755 41.2346 39.875 41.1813 39.875C41.1281 39.875 41.0749 39.8755 41.0218 39.8765C39.2091 39.7931 37.7604 38.2926 37.7604 36.4596C37.7604 34.5733 39.2946 33.0391 41.1809 33.0391C43.0672 33.0391 44.6015 34.5733 44.6015 36.4596C44.6015 38.2923 43.1532 39.7926 41.3409 39.8764Z" fill="#CDCFD6"/>
</g>
<defs>
<clipPath id="clip0_8818_28673">
<rect width="50" height="50" fill="white"/>
</clipPath>
</defs>
</svg>
