<svg width="108" height="24" viewBox="0 0 108 24" fill="none" xmlns="http://www.w3.org/2000/svg">
<path d="M15.8298 3.56182C15.4832 2.42746 16.3317 1.28088 17.5179 1.28088H23.2186C23.4209 1.28088 23.5996 1.4131 23.6588 1.60673L29.6944 21.3579C30.041 22.4922 29.1925 23.6388 28.0063 23.6388H22.5924C22.2197 23.6388 21.8907 23.3954 21.7817 23.0389L15.8298 3.56182Z" fill="url(#paint0_linear_15192_18634)"/>
<path fill-rule="evenodd" clip-rule="evenodd" d="M23.4297 23.6419C23.4461 23.6428 23.4627 23.6432 23.4794 23.6432H30.3969C30.3972 23.6432 30.3975 23.6431 30.3976 23.6428C30.3977 23.6424 30.3974 23.6419 30.3969 23.6419H23.4297ZM29.0947 17.046C29.6016 18.7047 31.9466 18.7141 32.4667 17.0594L37.3044 1.66669C37.3473 1.53015 37.2454 1.39124 37.1022 1.39124H29.8765C29.5066 1.39124 29.1794 1.63121 29.0681 1.98398L26.909 8.83124C26.8016 9.17163 26.8 9.53657 26.9043 9.8779L29.0947 17.046Z" fill="url(#paint1_linear_15192_18634)"/>
<path fill-rule="evenodd" clip-rule="evenodd" d="M23.3458 1.70147C23.4237 1.49362 23.2701 1.27209 23.0481 1.27209H22.4968C22.6991 1.27209 22.8778 1.40431 22.9369 1.59795L22.965 1.68972C23.0211 1.87355 23.2784 1.88149 23.3458 1.70147ZM12.9143 7.20483C13.5056 5.6257 15.7626 5.69533 16.2554 7.3079L18.3233 14.0749C18.4369 14.4467 18.4246 14.8456 18.2883 15.2096L15.5647 22.4838C15.3066 23.1732 14.6478 23.63 13.9117 23.63H12.8881C12.8412 23.6337 12.7937 23.6356 12.7456 23.6356H7.33845C6.96547 23.6356 6.63635 23.3918 6.52753 23.0351L0.00937161 1.65727C-0.0321981 1.52109 0.0697402 1.38349 0.212101 1.38349H7.66747C8.03975 1.38349 8.36842 1.62629 8.47777 1.98206L11.3599 11.3566L12.9143 7.20483Z" fill="url(#paint2_linear_15192_18634)"/>
<path d="M45.2068 11.7371C44.9797 11.7371 44.7802 11.5866 44.7177 11.3683L42.0762 2.13667C41.9832 1.81164 42.2273 1.48799 42.5653 1.48799H43.8559C44.0915 1.48799 44.2962 1.64969 44.3508 1.87883L45.9442 8.56741C45.9501 8.59196 45.972 8.60928 45.9973 8.60928C46.022 8.60928 46.0437 8.59259 46.05 8.56863L47.8112 1.86741C47.87 1.64384 48.0721 1.48799 48.3032 1.48799H49.5449C49.7763 1.48799 49.9786 1.64413 50.0371 1.86798L51.7931 8.58123C51.7998 8.6066 51.8227 8.62429 51.8489 8.62429C51.8756 8.62429 51.8988 8.60595 51.905 8.57997L53.498 1.87906C53.5525 1.64981 53.7573 1.48799 53.9929 1.48799H55.2833C55.6214 1.48799 55.8654 1.81164 55.7724 2.13667L53.131 11.3683C53.0685 11.5866 52.8689 11.7371 52.6419 11.7371H51.2953C51.0691 11.7371 50.8701 11.5877 50.8068 11.3706L48.9731 5.07455C48.9664 5.05178 48.9456 5.03612 48.9218 5.03612C48.8981 5.03612 48.8772 5.0518 48.8706 5.07458L47.0416 11.3702C46.9785 11.5876 46.7794 11.7371 46.5531 11.7371H45.2068ZM59.5842 11.8872C58.8068 11.8872 58.1346 11.722 57.5674 11.3917C57.0036 11.0581 56.5682 10.5944 56.2613 10.0005C55.9543 9.40332 55.8009 8.71103 55.8009 7.92369C55.8009 7.12963 55.9543 6.4357 56.2613 5.84185C56.5682 5.24465 57.0036 4.78089 57.5674 4.45062C58.1346 4.117 58.8068 3.95018 59.5842 3.95018C60.3615 3.95018 61.0321 4.117 61.596 4.45062C62.163 4.78089 62.6003 5.24465 62.907 5.84185C63.2141 6.4357 63.3674 7.12963 63.3674 7.92369C63.3674 8.71103 63.2141 9.40332 62.907 10.0005C62.6003 10.5944 62.163 11.0581 61.596 11.3917C61.0321 11.722 60.3615 11.8872 59.5842 11.8872ZM59.5942 10.2357C59.9478 10.2357 60.2431 10.1356 60.48 9.93545C60.7169 9.73196 60.8954 9.45503 61.0155 9.10471C61.1389 8.75443 61.2005 8.35573 61.2005 7.90866C61.2005 7.46161 61.1389 7.06291 61.0155 6.7126C60.8954 6.36231 60.7169 6.08538 60.48 5.88187C60.2431 5.67837 59.9478 5.5766 59.5942 5.5766C59.2372 5.5766 58.937 5.67837 58.6934 5.88187C58.4532 6.08538 58.2714 6.36231 58.1479 6.7126C58.0278 7.06291 57.9678 7.46161 57.9678 7.90866C57.9678 8.35573 58.0278 8.75443 58.1479 9.10471C58.2714 9.45503 58.4532 9.73196 58.6934 9.93545C58.937 10.1356 59.2372 10.2357 59.5942 10.2357ZM65.1216 11.7371C64.8406 11.7371 64.6128 11.5093 64.6128 11.2283V4.55898C64.6128 4.27802 64.8406 4.05025 65.1216 4.05025H66.1708C66.4518 4.05025 66.6796 4.27802 66.6796 4.55898V5.34562C66.6796 5.37093 66.7001 5.39145 66.7254 5.39145C66.7457 5.39145 66.7636 5.37799 66.7696 5.35855C66.9108 4.89776 67.1428 4.54842 67.4653 4.31049C67.7957 4.0636 68.176 3.94016 68.6064 3.94016C68.7132 3.94016 68.8282 3.94682 68.9516 3.96018C69.1445 3.98102 69.2769 4.15136 69.2769 4.34544V5.48345C69.2769 5.69448 69.0707 5.85445 68.8615 5.82682C68.6847 5.80347 68.5229 5.79179 68.3762 5.79179C68.0625 5.79179 67.7822 5.86019 67.5355 5.99697C67.2918 6.13043 67.0985 6.31726 66.955 6.55746C66.8149 6.79769 66.7447 7.07459 66.7447 7.3882V11.2283C66.7447 11.5093 66.5169 11.7371 66.2359 11.7371H65.1216ZM73.0641 8.50426C72.7543 8.85792 72.1717 8.63824 72.1726 8.16813L72.1745 7.17959C72.1747 7.06258 72.2696 6.96783 72.3866 6.96783C72.4492 6.96783 72.5085 6.94027 72.5488 6.89251L74.795 4.23087C74.8917 4.11634 75.034 4.05025 75.1838 4.05025H76.2892C76.7237 4.05025 76.9582 4.55979 76.6756 4.88985L74.239 7.7358C74.1423 7.84869 74.0012 7.91367 73.8526 7.91367H73.812C73.6654 7.91367 73.5259 7.97693 73.4293 8.08723L73.0641 8.50426ZM70.7469 11.7371C70.4659 11.7371 70.2381 11.5093 70.2381 11.2283V1.99672C70.2381 1.71576 70.4659 1.48799 70.7469 1.48799H71.8615C72.1425 1.48799 72.3702 1.71576 72.3702 1.99672V11.2283C72.3702 11.5093 72.1425 11.7371 71.8615 11.7371H70.7469ZM75.3129 11.7371C75.1439 11.7371 74.9859 11.6531 74.8913 11.5131L73.0086 8.72669C72.8753 8.52937 72.8967 8.26597 73.0601 8.09276L73.7694 7.34098C73.9918 7.10524 74.375 7.13479 74.5586 7.40183L76.9917 10.9401C77.2238 11.2776 76.9821 11.7371 76.5725 11.7371H75.3129ZM81.9245 4.05025C82.2055 4.05025 82.4332 4.27802 82.4332 4.55898V5.14293C82.4332 5.4239 82.2055 5.65166 81.9245 5.65166H78.1978C77.9168 5.65166 77.689 5.4239 77.689 5.14293V4.55898C77.689 4.27802 77.9168 4.05025 78.1978 4.05025H81.9245ZM79.2837 11.7371C79.0027 11.7371 78.7749 11.5093 78.7749 11.2283V3.49476C78.7749 2.9376 78.8835 2.47554 79.1003 2.10854C79.3205 1.74154 79.6207 1.46632 80.001 1.28282C80.3815 1.09932 80.8134 1.00757 81.2972 1.00757C81.6241 1.00757 81.9227 1.0326 82.1931 1.08263C82.2431 1.09179 82.2908 1.10078 82.3362 1.1096C82.6007 1.16106 82.755 1.42256 82.6927 1.68475L82.4971 2.50834C82.4573 2.67603 82.2823 2.77616 82.113 2.7441C81.9929 2.72075 81.8693 2.70908 81.7426 2.70908C81.429 2.70908 81.2105 2.78246 81.0871 2.92926C80.9635 3.07272 80.9019 3.27458 80.9019 3.5348V11.2283C80.9019 11.5093 80.6742 11.7371 80.3932 11.7371H79.2837ZM85.2178 1.48799C85.4987 1.48799 85.7265 1.71576 85.7265 1.99672V11.2283C85.7265 11.5093 85.4987 11.7371 85.2178 11.7371H84.1034C83.8224 11.7371 83.5947 11.5093 83.5947 11.2283V1.99672C83.5947 1.71576 83.8224 1.48799 84.1034 1.48799H85.2178ZM90.7665 11.8872C89.9892 11.8872 89.3169 11.722 88.7497 11.3917C88.186 11.0581 87.7505 10.5944 87.4435 10.0005C87.1367 9.40332 86.9831 8.71103 86.9831 7.92369C86.9831 7.12963 87.1367 6.4357 87.4435 5.84185C87.7505 5.24465 88.186 4.78089 88.7497 4.45062C89.3169 4.117 89.9892 3.95018 90.7665 3.95018C91.5439 3.95018 92.2144 4.117 92.7783 4.45062C93.3456 4.78089 93.7826 5.24465 94.0893 5.84185C94.3963 6.4357 94.5497 7.12963 94.5497 7.92369C94.5497 8.71103 94.3963 9.40332 94.0893 10.0005C93.7826 10.5944 93.3456 11.0581 92.7783 11.3917C92.2144 11.722 91.5439 11.8872 90.7665 11.8872ZM90.7765 10.2357C91.1303 10.2357 91.4253 10.1356 91.6624 9.93545C91.8992 9.73196 92.0775 9.45503 92.1978 9.10471C92.3212 8.75443 92.383 8.35573 92.383 7.90866C92.383 7.46161 92.3212 7.06291 92.1978 6.7126C92.0775 6.36231 91.8992 6.08538 91.6624 5.88187C91.4253 5.67837 91.1303 5.5766 90.7765 5.5766C90.4196 5.5766 90.1192 5.67837 89.8757 5.88187C89.6356 6.08538 89.4537 6.36231 89.3301 6.7126C89.2101 7.06291 89.15 7.46161 89.15 7.90866C89.15 8.35573 89.2101 8.75443 89.3301 9.10471C89.4537 9.45503 89.6356 9.73196 89.8757 9.93545C90.1192 10.1356 90.4196 10.2357 90.7765 10.2357ZM97.5076 11.7371C97.2781 11.7371 97.077 11.5834 97.0167 11.3619L95.2017 4.69257C95.1137 4.36901 95.3573 4.05025 95.6926 4.05025H96.7792C97.0161 4.05025 97.2217 4.2138 97.2749 4.44467L98.367 9.18046C98.3716 9.20058 98.3895 9.21483 98.4102 9.21483C98.4306 9.21483 98.4485 9.20078 98.4533 9.18086L99.5925 4.44012C99.6474 4.21145 99.8519 4.05025 100.087 4.05025H101.404C101.638 4.05025 101.842 4.21017 101.898 4.43763L103.056 9.15344C103.061 9.17185 103.077 9.18479 103.096 9.18479C103.116 9.18479 103.132 9.1715 103.137 9.15277L104.21 4.44588C104.263 4.21443 104.468 4.05025 104.706 4.05025H105.787C106.122 4.05025 106.366 4.36878 106.278 4.69227L104.467 11.3616C104.407 11.5832 104.206 11.7371 103.976 11.7371H102.497C102.267 11.7371 102.066 11.5836 102.006 11.3624L100.8 6.94868C100.792 6.92158 100.768 6.90279 100.739 6.90279C100.711 6.90279 100.687 6.92158 100.679 6.94868L99.4731 11.3624C99.4127 11.5836 99.2117 11.7371 98.9824 11.7371H97.5076Z" fill="white"/>
<path d="M43.8511 23.8005C43.6054 23.8005 43.4062 23.6013 43.4062 23.3556V17.0672C43.4062 16.7282 43.6811 16.4534 44.0201 16.4534H45.8888C46.4652 16.4534 46.9363 16.5574 47.3022 16.7655C47.6705 16.9712 47.9432 17.2498 48.1202 17.6014C48.2971 17.9529 48.3856 18.3452 48.3856 18.778C48.3856 19.2109 48.2971 19.6043 48.1202 19.9583C47.9456 20.3123 47.6753 20.5945 47.3094 20.8049C46.9435 21.013 46.4747 21.1171 45.9031 21.1171H44.5184C44.3004 21.1171 44.1238 20.9404 44.1238 20.7224C44.1238 20.5045 44.3004 20.3278 44.5184 20.3278H45.8744C46.269 20.3278 46.5859 20.2596 46.8251 20.1233C47.0643 19.987 47.2377 19.8029 47.3453 19.5709C47.4553 19.3365 47.5103 19.0722 47.5103 18.778C47.5103 18.4839 47.4553 18.2208 47.3453 17.9888C47.2377 17.7568 47.0631 17.5751 46.8215 17.4435C46.58 17.3096 46.2595 17.2426 45.8601 17.2426H44.9098C44.5708 17.2426 44.2959 17.5174 44.2959 17.8564V23.3556C44.2959 23.6013 44.0968 23.8005 43.8511 23.8005ZM50.0263 23.8005C49.7925 23.8005 49.603 23.6109 49.603 23.3772V18.6991C49.603 18.4733 49.7861 18.2902 50.012 18.2902C50.2378 18.2902 50.4209 18.4733 50.4209 18.6991V19.0886C50.4209 19.1073 50.4361 19.1224 50.4548 19.1224C50.4689 19.1224 50.4816 19.1136 50.4867 19.1003C50.5887 18.8378 50.7677 18.624 51.0236 18.4587C51.2867 18.289 51.5833 18.2041 51.9133 18.2041C51.9755 18.2041 52.0532 18.2053 52.1465 18.2076C52.2668 18.2107 52.3582 18.31 52.3582 18.4304V18.8794C52.3582 18.981 52.2615 19.0611 52.1608 19.0471C52.0604 19.0303 51.954 19.022 51.8416 19.022C51.5737 19.022 51.3345 19.0782 51.1241 19.1906C50.916 19.3006 50.751 19.4537 50.629 19.6498C50.5094 19.8435 50.4496 20.0647 50.4496 20.3135V23.3772C50.4496 23.6109 50.2601 23.8005 50.0263 23.8005ZM55.3316 23.9153C54.8341 23.9153 54.3976 23.7969 54.0222 23.5601C53.6491 23.3233 53.3573 22.9921 53.1468 22.5664C52.9388 22.1407 52.8347 21.6432 52.8347 21.074C52.8347 20.5 52.9388 19.999 53.1468 19.5709C53.3573 19.1428 53.6491 18.8103 54.0222 18.5736C54.3976 18.3368 54.8341 18.2184 55.3316 18.2184C55.829 18.2184 56.2643 18.3368 56.6374 18.5736C57.0129 18.8103 57.3047 19.1428 57.5127 19.5709C57.7232 19.999 57.8284 20.5 57.8284 21.074C57.8284 21.6432 57.7232 22.1407 57.5127 22.5664C57.3047 22.9921 57.0129 23.3233 56.6374 23.5601C56.2643 23.7969 55.829 23.9153 55.3316 23.9153ZM55.3316 23.1547C55.7095 23.1547 56.0204 23.0579 56.2643 22.8642C56.5083 22.6704 56.6888 22.4157 56.806 22.1C56.9232 21.7843 56.9818 21.4423 56.9818 21.074C56.9818 20.7057 56.9232 20.3625 56.806 20.0444C56.6888 19.7263 56.5083 19.4692 56.2643 19.2731C56.0204 19.077 55.7095 18.9789 55.3316 18.9789C54.9537 18.9789 54.6428 19.077 54.3988 19.2731C54.1549 19.4692 53.9743 19.7263 53.8571 20.0444C53.7399 20.3625 53.6813 20.7057 53.6813 21.074C53.6813 21.4423 53.7399 21.7843 53.8571 22.1C53.9743 22.4157 54.1549 22.6704 54.3988 22.8642C54.6428 23.0579 54.9537 23.1547 55.3316 23.1547ZM62.7512 19.1402C62.8658 19.3389 62.7382 19.5765 62.5174 19.639C62.3167 19.6958 62.1084 19.5856 61.9859 19.4167C61.9746 19.4011 61.9628 19.3855 61.9507 19.37C61.8599 19.248 61.7355 19.1476 61.5777 19.0686C61.4198 18.9897 61.2177 18.9502 60.9714 18.9502C60.6342 18.9502 60.3531 19.028 60.1283 19.1834C59.9059 19.3365 59.7947 19.5314 59.7947 19.7682C59.7947 19.9786 59.8712 20.1449 60.0243 20.2668C60.1773 20.3888 60.4165 20.4904 60.7418 20.5718L61.5597 20.7727C62.0524 20.8922 62.4195 21.0752 62.661 21.3216C62.9026 21.5655 63.0234 21.88 63.0234 22.2651C63.0234 22.5807 62.9325 22.863 62.7508 23.1117C62.5714 23.3604 62.3202 23.5565 61.9974 23.7C61.6745 23.8435 61.299 23.9153 60.8709 23.9153C60.3089 23.9153 59.8437 23.7933 59.4754 23.5494C59.2165 23.3779 59.0243 23.1508 58.899 22.8682C58.8067 22.6601 58.9505 22.4366 59.1714 22.3814C59.3972 22.3249 59.6168 22.4693 59.743 22.665C59.8157 22.7778 59.9059 22.8717 60.0135 22.9467C60.2288 23.0949 60.5098 23.1691 60.8566 23.1691C61.2512 23.1691 61.5645 23.0854 61.7965 22.918C62.0308 22.7481 62.1481 22.5449 62.1481 22.3081C62.1481 22.1167 62.0811 21.9565 61.9471 21.8274C61.8132 21.6958 61.6075 21.5978 61.3301 21.5332L60.4117 21.318C59.9071 21.1984 59.5364 21.013 59.2996 20.7619C59.0652 20.5084 58.948 20.1915 58.948 19.8112C58.948 19.5003 59.0354 19.2253 59.2099 18.9861C59.3869 18.7469 59.6273 18.5592 59.931 18.4229C60.2371 18.2866 60.5839 18.2184 60.9714 18.2184C61.5167 18.2184 61.9448 18.338 62.2557 18.5772C62.4592 18.7325 62.6244 18.9202 62.7512 19.1402Z" fill="#DFDFEC"/>
<defs>
<linearGradient id="paint0_linear_15192_18634" x1="18.7931" y1="23.3195" x2="24.5015" y2="1.31143" gradientUnits="userSpaceOnUse">
<stop stop-color="#002B81"/>
<stop offset="1" stop-color="#63DAEC"/>
</linearGradient>
<linearGradient id="paint1_linear_15192_18634" x1="26.7604" y1="23.3254" x2="32.8984" y2="1.68933" gradientUnits="userSpaceOnUse">
<stop stop-color="#002B81"/>
<stop offset="1" stop-color="#63DAEC"/>
</linearGradient>
<linearGradient id="paint2_linear_15192_18634" x1="5.60523" y1="23.3162" x2="9.4746" y2="0.477201" gradientUnits="userSpaceOnUse">
<stop stop-color="#002B81"/>
<stop offset="1" stop-color="#63DAEC"/>
</linearGradient>
</defs>
</svg>
