<svg width="112" height="22" viewBox="0 0 112 22" fill="none" xmlns="http://www.w3.org/2000/svg">
<g clip-path="url(#clip0_15502_6)">
<path d="M15.1842 2.18763C14.8518 1.09967 15.6656 0 16.8032 0H22.2708C22.4648 0 22.6362 0.1268 22.6929 0.31252L28.4816 19.2557C28.8141 20.3437 28.0003 21.4433 26.8626 21.4433H21.6702C21.3127 21.4433 20.9972 21.2099 20.8926 20.868L15.1842 2.18763Z" fill="url(#paint0_linear_15502_6)"/>
<path fill-rule="evenodd" clip-rule="evenodd" d="M27.9052 15.1057C28.3914 16.6966 30.6404 16.7056 31.1392 15.1186L35.7759 0.365752C35.817 0.234802 35.7193 0.101562 35.582 0.101562H28.6518C28.297 0.101562 27.9832 0.331723 27.8764 0.670063L25.8088 7.2271C25.7059 7.5535 25.7043 7.9035 25.8044 8.2309L27.9052 15.1057Z" fill="url(#paint1_linear_15502_6)"/>
<path fill-rule="evenodd" clip-rule="evenodd" d="M22.3893 0.41181C22.464 0.21247 22.3167 0 22.1038 0H21.579C21.773 0 21.9444 0.1268 22.0012 0.31252L22.0281 0.40067C22.0814 0.57503 22.3254 0.58255 22.3893 0.41181ZM12.3868 5.68414C12.9538 4.16962 15.1185 4.2364 15.5912 5.783L17.5744 12.2732C17.6834 12.6297 17.6716 13.0123 17.5409 13.3615L14.9265 20.344C14.679 21.0052 14.0471 21.4433 13.3411 21.4433H7.0726C7.06962 21.4433 7.06665 21.4433 7.06368 21.4432H7.03826C6.68053 21.4432 6.36488 21.2094 6.26051 20.8673L0.00898824 0.36398C-0.030881 0.23336 0.0668874 0.1014 0.203425 0.1014H7.35383C7.71087 0.1014 8.0261 0.33426 8.13098 0.67548L10.8954 9.6674L12.3868 5.68414Z" fill="url(#paint2_linear_15502_6)"/>
<g filter="url(#filter0_d_15502_6)">
<path d="M43.5847 21.6223C43.3589 21.6223 43.1758 21.4392 43.1758 21.2134V15.4325C43.1758 15.1208 43.4284 14.8682 43.7401 14.8682H45.458C45.9878 14.8682 46.4209 14.9638 46.7574 15.1551C47.0959 15.3442 47.3466 15.6003 47.5093 15.9235C47.672 16.2467 47.7533 16.6073 47.7533 17.0052C47.7533 17.4032 47.672 17.7648 47.5093 18.0903C47.3488 18.4157 47.1003 18.6751 46.7639 18.8686C46.4276 19.0598 45.9966 19.1555 45.4711 19.1555H44.1982C43.9978 19.1555 43.8354 18.9931 43.8354 18.7927C43.8354 18.5923 43.9978 18.4299 44.1982 18.4299H45.4448C45.8075 18.4299 46.0988 18.3673 46.3187 18.242C46.5386 18.1166 46.698 17.9473 46.7969 17.7341C46.8981 17.5186 46.9486 17.2757 46.9486 17.0052C46.9486 16.7348 46.8981 16.4929 46.7969 16.2797C46.698 16.0664 46.5375 15.8993 46.3154 15.7784C46.0934 15.6553 45.7988 15.5937 45.4316 15.5937H44.558C44.2463 15.5937 43.9937 15.8464 43.9937 16.158V21.2134C43.9937 21.4392 43.8106 21.6223 43.5847 21.6223ZM49.2616 21.6223C49.0467 21.6223 48.8724 21.4481 48.8724 21.2332V16.9327C48.8724 16.725 49.0408 16.5567 49.2484 16.5567C49.456 16.5567 49.6244 16.725 49.6244 16.9327V17.2907C49.6244 17.3079 49.6383 17.3218 49.6555 17.3218C49.6685 17.3218 49.6801 17.3137 49.6848 17.3015C49.7786 17.0602 49.9431 16.8636 50.1784 16.7117C50.4203 16.5556 50.6929 16.4776 50.9963 16.4776C51.0535 16.4776 51.1249 16.4787 51.2107 16.4808C51.3213 16.4837 51.4053 16.575 51.4053 16.6856V17.0984C51.4053 17.1918 51.3163 17.2655 51.2239 17.2526C51.1315 17.2372 51.0337 17.2295 50.9303 17.2295C50.6841 17.2295 50.4642 17.2812 50.2708 17.3845C50.0795 17.4856 49.9278 17.6263 49.8157 17.8066C49.7057 17.9847 49.6507 18.1881 49.6507 18.4168V21.2332C49.6507 21.4481 49.4765 21.6223 49.2616 21.6223ZM54.1387 21.7279C53.6814 21.7279 53.2801 21.619 52.935 21.4014C52.592 21.1837 52.3237 20.8792 52.1303 20.4878C51.939 20.0965 51.8433 19.6392 51.8433 19.1159C51.8433 18.5882 51.939 18.1276 52.1303 17.7341C52.3237 17.3405 52.592 17.0349 52.935 16.8172C53.2801 16.5996 53.6814 16.4907 54.1387 16.4907C54.596 16.4907 54.9962 16.5996 55.3391 16.8172C55.6843 17.0349 55.9526 17.3405 56.1438 17.7341C56.3373 18.1276 56.4341 18.5882 56.4341 19.1159C56.4341 19.6392 56.3373 20.0965 56.1438 20.4878C55.9526 20.8792 55.6843 21.1837 55.3391 21.4014C54.9962 21.619 54.596 21.7279 54.1387 21.7279ZM54.1387 21.0287C54.4861 21.0287 54.7719 20.9396 54.9962 20.7616C55.2204 20.5835 55.3864 20.3493 55.4942 20.0591C55.6019 19.7689 55.6557 19.4545 55.6557 19.1159C55.6557 18.7773 55.6019 18.4618 55.4942 18.1694C55.3864 17.877 55.2204 17.6406 54.9962 17.4604C54.7719 17.2801 54.4861 17.1899 54.1387 17.1899C53.7913 17.1899 53.5055 17.2801 53.2812 17.4604C53.057 17.6406 52.891 17.877 52.7832 18.1694C52.6755 18.4618 52.6217 18.7773 52.6217 19.1159C52.6217 19.4545 52.6755 19.7689 52.7832 20.0591C52.891 20.3493 53.057 20.5835 53.2812 20.7616C53.5055 20.9396 53.7913 21.0287 54.1387 21.0287ZM60.9595 17.3381C61.0649 17.5208 60.9476 17.7393 60.7446 17.7967C60.5601 17.8489 60.3686 17.7476 60.256 17.5923C60.2456 17.578 60.2348 17.5637 60.2237 17.5494C60.1401 17.4372 60.0258 17.3449 59.8807 17.2724C59.7356 17.1998 59.5498 17.1635 59.3233 17.1635C59.0133 17.1635 58.755 17.235 58.5483 17.3779C58.3439 17.5186 58.2416 17.6978 58.2416 17.9155C58.2416 18.1089 58.312 18.2617 58.4527 18.3739C58.5934 18.486 58.8133 18.5794 59.1123 18.6542L59.8642 18.8389C60.3171 18.9488 60.6546 19.117 60.8767 19.3435C61.0987 19.5677 61.2098 19.8568 61.2098 20.2108C61.2098 20.501 61.1262 20.7605 60.9591 20.9891C60.7942 21.2178 60.5634 21.3981 60.2665 21.53C59.9697 21.6619 59.6246 21.7279 59.231 21.7279C58.7143 21.7279 58.2867 21.6157 57.9481 21.3915C57.7101 21.2338 57.5334 21.0251 57.4182 20.7653C57.3333 20.574 57.4656 20.3686 57.6686 20.3178C57.8763 20.2659 58.0781 20.3986 58.1941 20.5785C58.261 20.6822 58.3439 20.7685 58.4428 20.8374C58.6407 20.9737 58.899 21.0419 59.2178 21.0419C59.5806 21.0419 59.8686 20.9649 60.0819 20.811C60.2973 20.6549 60.4051 20.4681 60.4051 20.2504C60.4051 20.0745 60.3435 19.9272 60.2204 19.8085C60.0972 19.6876 59.9082 19.5974 59.6531 19.538L58.8089 19.3402C58.345 19.2302 58.0042 19.0598 57.7865 18.829C57.5711 18.5959 57.4633 18.3046 57.4633 17.955C57.4633 17.6692 57.5436 17.4164 57.7041 17.1965C57.8667 16.9766 58.0877 16.804 58.3669 16.6787C58.6484 16.5534 58.9672 16.4907 59.3233 16.4907C59.8246 16.4907 60.2182 16.6007 60.504 16.8206C60.6911 16.9634 60.843 17.1359 60.9595 17.3381Z" fill="#5A5F6F"/>
<path d="M43.5847 21.6223C43.3589 21.6223 43.1758 21.4392 43.1758 21.2134V15.4325C43.1758 15.1208 43.4284 14.8682 43.7401 14.8682H45.458C45.9878 14.8682 46.4209 14.9638 46.7574 15.1551C47.0959 15.3442 47.3466 15.6003 47.5093 15.9235C47.672 16.2467 47.7533 16.6073 47.7533 17.0052C47.7533 17.4032 47.672 17.7648 47.5093 18.0903C47.3488 18.4157 47.1003 18.6751 46.7639 18.8686C46.4276 19.0598 45.9966 19.1555 45.4711 19.1555H44.1982C43.9978 19.1555 43.8354 18.9931 43.8354 18.7927C43.8354 18.5923 43.9978 18.4299 44.1982 18.4299H45.4448C45.8075 18.4299 46.0988 18.3673 46.3187 18.242C46.5386 18.1166 46.698 17.9473 46.7969 17.7341C46.8981 17.5186 46.9486 17.2757 46.9486 17.0052C46.9486 16.7348 46.8981 16.4929 46.7969 16.2797C46.698 16.0664 46.5375 15.8993 46.3154 15.7784C46.0934 15.6553 45.7988 15.5937 45.4316 15.5937H44.558C44.2463 15.5937 43.9937 15.8464 43.9937 16.158V21.2134C43.9937 21.4392 43.8106 21.6223 43.5847 21.6223ZM49.2616 21.6223C49.0467 21.6223 48.8724 21.4481 48.8724 21.2332V16.9327C48.8724 16.725 49.0408 16.5567 49.2484 16.5567C49.456 16.5567 49.6244 16.725 49.6244 16.9327V17.2907C49.6244 17.3079 49.6383 17.3218 49.6555 17.3218C49.6685 17.3218 49.6801 17.3137 49.6848 17.3015C49.7786 17.0602 49.9431 16.8636 50.1784 16.7117C50.4203 16.5556 50.6929 16.4776 50.9963 16.4776C51.0535 16.4776 51.1249 16.4787 51.2107 16.4808C51.3213 16.4837 51.4053 16.575 51.4053 16.6856V17.0984C51.4053 17.1918 51.3163 17.2655 51.2239 17.2526C51.1315 17.2372 51.0337 17.2295 50.9303 17.2295C50.6841 17.2295 50.4642 17.2812 50.2708 17.3845C50.0795 17.4856 49.9278 17.6263 49.8157 17.8066C49.7057 17.9847 49.6507 18.1881 49.6507 18.4168V21.2332C49.6507 21.4481 49.4765 21.6223 49.2616 21.6223ZM54.1387 21.7279C53.6814 21.7279 53.2801 21.619 52.935 21.4014C52.592 21.1837 52.3237 20.8792 52.1303 20.4878C51.939 20.0965 51.8433 19.6392 51.8433 19.1159C51.8433 18.5882 51.939 18.1276 52.1303 17.7341C52.3237 17.3405 52.592 17.0349 52.935 16.8172C53.2801 16.5996 53.6814 16.4907 54.1387 16.4907C54.596 16.4907 54.9962 16.5996 55.3391 16.8172C55.6843 17.0349 55.9526 17.3405 56.1438 17.7341C56.3373 18.1276 56.4341 18.5882 56.4341 19.1159C56.4341 19.6392 56.3373 20.0965 56.1438 20.4878C55.9526 20.8792 55.6843 21.1837 55.3391 21.4014C54.9962 21.619 54.596 21.7279 54.1387 21.7279ZM54.1387 21.0287C54.4861 21.0287 54.7719 20.9396 54.9962 20.7616C55.2204 20.5835 55.3864 20.3493 55.4942 20.0591C55.6019 19.7689 55.6557 19.4545 55.6557 19.1159C55.6557 18.7773 55.6019 18.4618 55.4942 18.1694C55.3864 17.877 55.2204 17.6406 54.9962 17.4604C54.7719 17.2801 54.4861 17.1899 54.1387 17.1899C53.7913 17.1899 53.5055 17.2801 53.2812 17.4604C53.057 17.6406 52.891 17.877 52.7832 18.1694C52.6755 18.4618 52.6217 18.7773 52.6217 19.1159C52.6217 19.4545 52.6755 19.7689 52.7832 20.0591C52.891 20.3493 53.057 20.5835 53.2812 20.7616C53.5055 20.9396 53.7913 21.0287 54.1387 21.0287ZM60.9595 17.3381C61.0649 17.5208 60.9476 17.7393 60.7446 17.7967C60.5601 17.8489 60.3686 17.7476 60.256 17.5923C60.2456 17.578 60.2348 17.5637 60.2237 17.5494C60.1401 17.4372 60.0258 17.3449 59.8807 17.2724C59.7356 17.1998 59.5498 17.1635 59.3233 17.1635C59.0133 17.1635 58.755 17.235 58.5483 17.3779C58.3439 17.5186 58.2416 17.6978 58.2416 17.9155C58.2416 18.1089 58.312 18.2617 58.4527 18.3739C58.5934 18.486 58.8133 18.5794 59.1123 18.6542L59.8642 18.8389C60.3171 18.9488 60.6546 19.117 60.8767 19.3435C61.0987 19.5677 61.2098 19.8568 61.2098 20.2108C61.2098 20.501 61.1262 20.7605 60.9591 20.9891C60.7942 21.2178 60.5634 21.3981 60.2665 21.53C59.9697 21.6619 59.6246 21.7279 59.231 21.7279C58.7143 21.7279 58.2867 21.6157 57.9481 21.3915C57.7101 21.2338 57.5334 21.0251 57.4182 20.7653C57.3333 20.574 57.4656 20.3686 57.6686 20.3178C57.8763 20.2659 58.0781 20.3986 58.1941 20.5785C58.261 20.6822 58.3439 20.7685 58.4428 20.8374C58.6407 20.9737 58.899 21.0419 59.2178 21.0419C59.5806 21.0419 59.8686 20.9649 60.0819 20.811C60.2973 20.6549 60.4051 20.4681 60.4051 20.2504C60.4051 20.0745 60.3435 19.9272 60.2204 19.8085C60.0972 19.6876 59.9082 19.5974 59.6531 19.538L58.8089 19.3402C58.345 19.2302 58.0042 19.0598 57.7865 18.829C57.5711 18.5959 57.4633 18.3046 57.4633 17.955C57.4633 17.6692 57.5436 17.4164 57.7041 17.1965C57.8667 16.9766 58.0877 16.804 58.3669 16.6787C58.6484 16.5534 58.9672 16.4907 59.3233 16.4907C59.8246 16.4907 60.2182 16.6007 60.504 16.8206C60.6911 16.9634 60.843 17.1359 60.9595 17.3381Z" fill="black" fill-opacity="0.2"/>
<path d="M43.5847 21.6223C43.3589 21.6223 43.1758 21.4392 43.1758 21.2134V15.4325C43.1758 15.1208 43.4284 14.8682 43.7401 14.8682H45.458C45.9878 14.8682 46.4209 14.9638 46.7574 15.1551C47.0959 15.3442 47.3466 15.6003 47.5093 15.9235C47.672 16.2467 47.7533 16.6073 47.7533 17.0052C47.7533 17.4032 47.672 17.7648 47.5093 18.0903C47.3488 18.4157 47.1003 18.6751 46.7639 18.8686C46.4276 19.0598 45.9966 19.1555 45.4711 19.1555H44.1982C43.9978 19.1555 43.8354 18.9931 43.8354 18.7927C43.8354 18.5923 43.9978 18.4299 44.1982 18.4299H45.4448C45.8075 18.4299 46.0988 18.3673 46.3187 18.242C46.5386 18.1166 46.698 17.9473 46.7969 17.7341C46.8981 17.5186 46.9486 17.2757 46.9486 17.0052C46.9486 16.7348 46.8981 16.4929 46.7969 16.2797C46.698 16.0664 46.5375 15.8993 46.3154 15.7784C46.0934 15.6553 45.7988 15.5937 45.4316 15.5937H44.558C44.2463 15.5937 43.9937 15.8464 43.9937 16.158V21.2134C43.9937 21.4392 43.8106 21.6223 43.5847 21.6223ZM49.2616 21.6223C49.0467 21.6223 48.8724 21.4481 48.8724 21.2332V16.9327C48.8724 16.725 49.0408 16.5567 49.2484 16.5567C49.456 16.5567 49.6244 16.725 49.6244 16.9327V17.2907C49.6244 17.3079 49.6383 17.3218 49.6555 17.3218C49.6685 17.3218 49.6801 17.3137 49.6848 17.3015C49.7786 17.0602 49.9431 16.8636 50.1784 16.7117C50.4203 16.5556 50.6929 16.4776 50.9963 16.4776C51.0535 16.4776 51.1249 16.4787 51.2107 16.4808C51.3213 16.4837 51.4053 16.575 51.4053 16.6856V17.0984C51.4053 17.1918 51.3163 17.2655 51.2239 17.2526C51.1315 17.2372 51.0337 17.2295 50.9303 17.2295C50.6841 17.2295 50.4642 17.2812 50.2708 17.3845C50.0795 17.4856 49.9278 17.6263 49.8157 17.8066C49.7057 17.9847 49.6507 18.1881 49.6507 18.4168V21.2332C49.6507 21.4481 49.4765 21.6223 49.2616 21.6223ZM54.1387 21.7279C53.6814 21.7279 53.2801 21.619 52.935 21.4014C52.592 21.1837 52.3237 20.8792 52.1303 20.4878C51.939 20.0965 51.8433 19.6392 51.8433 19.1159C51.8433 18.5882 51.939 18.1276 52.1303 17.7341C52.3237 17.3405 52.592 17.0349 52.935 16.8172C53.2801 16.5996 53.6814 16.4907 54.1387 16.4907C54.596 16.4907 54.9962 16.5996 55.3391 16.8172C55.6843 17.0349 55.9526 17.3405 56.1438 17.7341C56.3373 18.1276 56.4341 18.5882 56.4341 19.1159C56.4341 19.6392 56.3373 20.0965 56.1438 20.4878C55.9526 20.8792 55.6843 21.1837 55.3391 21.4014C54.9962 21.619 54.596 21.7279 54.1387 21.7279ZM54.1387 21.0287C54.4861 21.0287 54.7719 20.9396 54.9962 20.7616C55.2204 20.5835 55.3864 20.3493 55.4942 20.0591C55.6019 19.7689 55.6557 19.4545 55.6557 19.1159C55.6557 18.7773 55.6019 18.4618 55.4942 18.1694C55.3864 17.877 55.2204 17.6406 54.9962 17.4604C54.7719 17.2801 54.4861 17.1899 54.1387 17.1899C53.7913 17.1899 53.5055 17.2801 53.2812 17.4604C53.057 17.6406 52.891 17.877 52.7832 18.1694C52.6755 18.4618 52.6217 18.7773 52.6217 19.1159C52.6217 19.4545 52.6755 19.7689 52.7832 20.0591C52.891 20.3493 53.057 20.5835 53.2812 20.7616C53.5055 20.9396 53.7913 21.0287 54.1387 21.0287ZM60.9595 17.3381C61.0649 17.5208 60.9476 17.7393 60.7446 17.7967C60.5601 17.8489 60.3686 17.7476 60.256 17.5923C60.2456 17.578 60.2348 17.5637 60.2237 17.5494C60.1401 17.4372 60.0258 17.3449 59.8807 17.2724C59.7356 17.1998 59.5498 17.1635 59.3233 17.1635C59.0133 17.1635 58.755 17.235 58.5483 17.3779C58.3439 17.5186 58.2416 17.6978 58.2416 17.9155C58.2416 18.1089 58.312 18.2617 58.4527 18.3739C58.5934 18.486 58.8133 18.5794 59.1123 18.6542L59.8642 18.8389C60.3171 18.9488 60.6546 19.117 60.8767 19.3435C61.0987 19.5677 61.2098 19.8568 61.2098 20.2108C61.2098 20.501 61.1262 20.7605 60.9591 20.9891C60.7942 21.2178 60.5634 21.3981 60.2665 21.53C59.9697 21.6619 59.6246 21.7279 59.231 21.7279C58.7143 21.7279 58.2867 21.6157 57.9481 21.3915C57.7101 21.2338 57.5334 21.0251 57.4182 20.7653C57.3333 20.574 57.4656 20.3686 57.6686 20.3178C57.8763 20.2659 58.0781 20.3986 58.1941 20.5785C58.261 20.6822 58.3439 20.7685 58.4428 20.8374C58.6407 20.9737 58.899 21.0419 59.2178 21.0419C59.5806 21.0419 59.8686 20.9649 60.0819 20.811C60.2973 20.6549 60.4051 20.4681 60.4051 20.2504C60.4051 20.0745 60.3435 19.9272 60.2204 19.8085C60.0972 19.6876 59.9082 19.5974 59.6531 19.538L58.8089 19.3402C58.345 19.2302 58.0042 19.0598 57.7865 18.829C57.5711 18.5959 57.4633 18.3046 57.4633 17.955C57.4633 17.6692 57.5436 17.4164 57.7041 17.1965C57.8667 16.9766 58.0877 16.804 58.3669 16.6787C58.6484 16.5534 58.9672 16.4907 59.3233 16.4907C59.8246 16.4907 60.2182 16.6007 60.504 16.8206C60.6911 16.9634 60.843 17.1359 60.9595 17.3381Z" fill="black" fill-opacity="0.2"/>
<path d="M43.5847 21.6223C43.3589 21.6223 43.1758 21.4392 43.1758 21.2134V15.4325C43.1758 15.1208 43.4284 14.8682 43.7401 14.8682H45.458C45.9878 14.8682 46.4209 14.9638 46.7574 15.1551C47.0959 15.3442 47.3466 15.6003 47.5093 15.9235C47.672 16.2467 47.7533 16.6073 47.7533 17.0052C47.7533 17.4032 47.672 17.7648 47.5093 18.0903C47.3488 18.4157 47.1003 18.6751 46.7639 18.8686C46.4276 19.0598 45.9966 19.1555 45.4711 19.1555H44.1982C43.9978 19.1555 43.8354 18.9931 43.8354 18.7927C43.8354 18.5923 43.9978 18.4299 44.1982 18.4299H45.4448C45.8075 18.4299 46.0988 18.3673 46.3187 18.242C46.5386 18.1166 46.698 17.9473 46.7969 17.7341C46.8981 17.5186 46.9486 17.2757 46.9486 17.0052C46.9486 16.7348 46.8981 16.4929 46.7969 16.2797C46.698 16.0664 46.5375 15.8993 46.3154 15.7784C46.0934 15.6553 45.7988 15.5937 45.4316 15.5937H44.558C44.2463 15.5937 43.9937 15.8464 43.9937 16.158V21.2134C43.9937 21.4392 43.8106 21.6223 43.5847 21.6223ZM49.2616 21.6223C49.0467 21.6223 48.8724 21.4481 48.8724 21.2332V16.9327C48.8724 16.725 49.0408 16.5567 49.2484 16.5567C49.456 16.5567 49.6244 16.725 49.6244 16.9327V17.2907C49.6244 17.3079 49.6383 17.3218 49.6555 17.3218C49.6685 17.3218 49.6801 17.3137 49.6848 17.3015C49.7786 17.0602 49.9431 16.8636 50.1784 16.7117C50.4203 16.5556 50.6929 16.4776 50.9963 16.4776C51.0535 16.4776 51.1249 16.4787 51.2107 16.4808C51.3213 16.4837 51.4053 16.575 51.4053 16.6856V17.0984C51.4053 17.1918 51.3163 17.2655 51.2239 17.2526C51.1315 17.2372 51.0337 17.2295 50.9303 17.2295C50.6841 17.2295 50.4642 17.2812 50.2708 17.3845C50.0795 17.4856 49.9278 17.6263 49.8157 17.8066C49.7057 17.9847 49.6507 18.1881 49.6507 18.4168V21.2332C49.6507 21.4481 49.4765 21.6223 49.2616 21.6223ZM54.1387 21.7279C53.6814 21.7279 53.2801 21.619 52.935 21.4014C52.592 21.1837 52.3237 20.8792 52.1303 20.4878C51.939 20.0965 51.8433 19.6392 51.8433 19.1159C51.8433 18.5882 51.939 18.1276 52.1303 17.7341C52.3237 17.3405 52.592 17.0349 52.935 16.8172C53.2801 16.5996 53.6814 16.4907 54.1387 16.4907C54.596 16.4907 54.9962 16.5996 55.3391 16.8172C55.6843 17.0349 55.9526 17.3405 56.1438 17.7341C56.3373 18.1276 56.4341 18.5882 56.4341 19.1159C56.4341 19.6392 56.3373 20.0965 56.1438 20.4878C55.9526 20.8792 55.6843 21.1837 55.3391 21.4014C54.9962 21.619 54.596 21.7279 54.1387 21.7279ZM54.1387 21.0287C54.4861 21.0287 54.7719 20.9396 54.9962 20.7616C55.2204 20.5835 55.3864 20.3493 55.4942 20.0591C55.6019 19.7689 55.6557 19.4545 55.6557 19.1159C55.6557 18.7773 55.6019 18.4618 55.4942 18.1694C55.3864 17.877 55.2204 17.6406 54.9962 17.4604C54.7719 17.2801 54.4861 17.1899 54.1387 17.1899C53.7913 17.1899 53.5055 17.2801 53.2812 17.4604C53.057 17.6406 52.891 17.877 52.7832 18.1694C52.6755 18.4618 52.6217 18.7773 52.6217 19.1159C52.6217 19.4545 52.6755 19.7689 52.7832 20.0591C52.891 20.3493 53.057 20.5835 53.2812 20.7616C53.5055 20.9396 53.7913 21.0287 54.1387 21.0287ZM60.9595 17.3381C61.0649 17.5208 60.9476 17.7393 60.7446 17.7967C60.5601 17.8489 60.3686 17.7476 60.256 17.5923C60.2456 17.578 60.2348 17.5637 60.2237 17.5494C60.1401 17.4372 60.0258 17.3449 59.8807 17.2724C59.7356 17.1998 59.5498 17.1635 59.3233 17.1635C59.0133 17.1635 58.755 17.235 58.5483 17.3779C58.3439 17.5186 58.2416 17.6978 58.2416 17.9155C58.2416 18.1089 58.312 18.2617 58.4527 18.3739C58.5934 18.486 58.8133 18.5794 59.1123 18.6542L59.8642 18.8389C60.3171 18.9488 60.6546 19.117 60.8767 19.3435C61.0987 19.5677 61.2098 19.8568 61.2098 20.2108C61.2098 20.501 61.1262 20.7605 60.9591 20.9891C60.7942 21.2178 60.5634 21.3981 60.2665 21.53C59.9697 21.6619 59.6246 21.7279 59.231 21.7279C58.7143 21.7279 58.2867 21.6157 57.9481 21.3915C57.7101 21.2338 57.5334 21.0251 57.4182 20.7653C57.3333 20.574 57.4656 20.3686 57.6686 20.3178C57.8763 20.2659 58.0781 20.3986 58.1941 20.5785C58.261 20.6822 58.3439 20.7685 58.4428 20.8374C58.6407 20.9737 58.899 21.0419 59.2178 21.0419C59.5806 21.0419 59.8686 20.9649 60.0819 20.811C60.2973 20.6549 60.4051 20.4681 60.4051 20.2504C60.4051 20.0745 60.3435 19.9272 60.2204 19.8085C60.0972 19.6876 59.9082 19.5974 59.6531 19.538L58.8089 19.3402C58.345 19.2302 58.0042 19.0598 57.7865 18.829C57.5711 18.5959 57.4633 18.3046 57.4633 17.955C57.4633 17.6692 57.5436 17.4164 57.7041 17.1965C57.8667 16.9766 58.0877 16.804 58.3669 16.6787C58.6484 16.5534 58.9672 16.4907 59.3233 16.4907C59.8246 16.4907 60.2182 16.6007 60.504 16.8206C60.6911 16.9634 60.843 17.1359 60.9595 17.3381Z" fill="black" fill-opacity="0.2"/>
</g>
<g filter="url(#filter1_d_15502_6)">
<path d="M44.0651 12.3018C43.8132 12.3018 43.5919 12.1349 43.5226 11.8927L40.5926 1.65282C40.4894 1.29229 40.7601 0.93329 41.1351 0.93329H42.5667C42.828 0.93329 43.0551 1.11265 43.1156 1.36681L44.8831 8.7859C44.8896 8.8132 44.9139 8.8324 44.9419 8.8324C44.9694 8.8324 44.9934 8.8139 45.0004 8.7873L46.954 1.35414C47.0192 1.10616 47.2433 0.93329 47.4997 0.93329H48.8771C49.1337 0.93329 49.358 1.10648 49.423 1.35478L51.3708 8.8013C51.3781 8.8294 51.4036 8.849 51.4327 8.849C51.4623 8.849 51.488 8.8287 51.4949 8.7999L53.2619 1.36707C53.3223 1.11278 53.5495 0.93329 53.8109 0.93329H55.2422C55.6172 0.93329 55.8879 1.29229 55.7847 1.65282L52.8548 11.8927C52.7855 12.1349 52.5641 12.3018 52.3122 12.3018H50.8186C50.5677 12.3018 50.347 12.1361 50.2768 11.8953L48.2427 4.91158C48.2354 4.88632 48.2122 4.86896 48.1859 4.86896C48.1596 4.86896 48.1364 4.88634 48.1291 4.91162L46.1003 11.8949C46.0303 12.136 45.8095 12.3018 45.5584 12.3018H44.0651ZM60.0128 12.4683C59.1506 12.4683 58.4049 12.2851 57.7758 11.9188C57.1504 11.5487 56.6674 11.0343 56.327 10.3756C55.9865 9.7131 55.8163 8.9452 55.8163 8.0719C55.8163 7.1911 55.9865 6.4214 56.327 5.76269C56.6674 5.10026 57.1504 4.58585 57.7758 4.2195C58.4049 3.84944 59.1506 3.6644 60.0128 3.6644C60.8751 3.6644 61.6189 3.84944 62.2444 4.2195C62.8733 4.58585 63.3583 5.10026 63.6986 5.76269C64.0392 6.4214 64.2093 7.1911 64.2093 8.0719C64.2093 8.9452 64.0392 9.7131 63.6986 10.3756C63.3583 11.0343 62.8733 11.5487 62.2444 11.9188C61.6189 12.2851 60.8751 12.4683 60.0128 12.4683ZM60.0239 10.6365C60.4162 10.6365 60.7437 10.5255 61.0065 10.3034C61.2692 10.0777 61.4672 9.7705 61.6004 9.3819C61.7374 8.9934 61.8057 8.5511 61.8057 8.0552C61.8057 7.5594 61.7374 7.1171 61.6004 6.7285C61.4672 6.34 61.2692 6.0328 61.0065 5.80707C60.7437 5.58135 60.4162 5.46847 60.0239 5.46847C59.628 5.46847 59.2949 5.58135 59.0248 5.80707C58.7583 6.0328 58.5566 6.34 58.4197 6.7285C58.2865 7.1171 58.2199 7.5594 58.2199 8.0552C58.2199 8.5511 58.2865 8.9934 58.4197 9.3819C58.5566 9.7705 58.7583 10.0777 59.0248 10.3034C59.2949 10.5255 59.628 10.6365 60.0239 10.6365ZM66.155 12.3018C65.8433 12.3018 65.5907 12.0491 65.5907 11.7375V4.3397C65.5907 4.02805 65.8433 3.7754 66.155 3.7754H67.3189C67.6305 3.7754 67.8832 4.02805 67.8832 4.3397V5.21226C67.8832 5.24033 67.9059 5.26309 67.934 5.26309C67.9566 5.26309 67.9764 5.24816 67.983 5.2266C68.1396 4.71548 68.397 4.32798 68.7547 4.06407C69.1212 3.79021 69.5431 3.65329 70.0204 3.65329C70.139 3.65329 70.2665 3.66068 70.4033 3.67549C70.6173 3.69861 70.7642 3.88756 70.7642 4.10283V5.36515C70.7642 5.59922 70.5355 5.77667 70.3034 5.74602C70.1073 5.72011 69.9279 5.70716 69.7651 5.70716C69.4172 5.70716 69.1063 5.78303 68.8326 5.93475C68.5623 6.0828 68.3479 6.29 68.1887 6.5565C68.0333 6.8229 67.9554 7.1301 67.9554 7.4779V11.7375C67.9554 12.0491 67.7027 12.3018 67.3911 12.3018H66.155ZM74.965 8.7159C74.6215 9.1082 73.9752 8.8645 73.9762 8.3431L73.9783 7.2465C73.9785 7.1167 74.0838 7.0117 74.2136 7.0117C74.2829 7.0117 74.3487 6.9811 74.3935 6.9281L76.8851 3.97575C76.9923 3.84871 77.1501 3.7754 77.3163 3.7754H78.5424C79.0244 3.7754 79.2845 4.34059 78.9711 4.7067L76.2683 7.8635C76.1611 7.9887 76.0045 8.0608 75.8396 8.0608H75.7946C75.632 8.0608 75.4773 8.131 75.3701 8.2533L74.965 8.7159ZM72.3947 12.3018C72.0831 12.3018 71.8304 12.0491 71.8304 11.7375V1.49758C71.8304 1.18593 72.0831 0.93329 72.3947 0.93329H73.6311C73.9428 0.93329 74.1954 1.18593 74.1954 1.49758V11.7375C74.1954 12.0491 73.9428 12.3018 73.6311 12.3018H72.3947ZM77.4594 12.3018C77.272 12.3018 77.0968 12.2087 76.9918 12.0534L74.9035 8.9626C74.7556 8.7437 74.7794 8.4516 74.9606 8.2594L75.7474 7.4256C75.9941 7.1641 76.4191 7.1968 76.6228 7.4931L79.3216 11.4177C79.5791 11.7921 79.311 12.3018 78.8566 12.3018H77.4594ZM84.7932 3.7754C85.1049 3.7754 85.3575 4.02805 85.3575 4.3397V4.98743C85.3575 5.29908 85.1049 5.55173 84.7932 5.55173H80.6594C80.3478 5.55173 80.0951 5.29908 80.0951 4.98743V4.3397C80.0951 4.02805 80.3478 3.7754 80.6594 3.7754H84.7932ZM81.8639 12.3018C81.5523 12.3018 81.2996 12.0491 81.2996 11.7375V3.15924C81.2996 2.54123 81.4201 2.0287 81.6605 1.62162C81.9048 1.21453 82.2378 0.90925 82.6596 0.7057C83.0817 0.50216 83.5608 0.400391 84.0974 0.400391C84.46 0.400391 84.7912 0.428151 85.0912 0.483651C85.1466 0.493811 85.1995 0.50378 85.2498 0.51357C85.5432 0.57065 85.7144 0.86071 85.6453 1.15154L85.4284 2.06508C85.3842 2.25108 85.1901 2.36215 85.0023 2.32659C84.8691 2.30069 84.732 2.28774 84.5915 2.28774C84.2436 2.28774 84.0012 2.36914 83.8644 2.53197C83.7272 2.6911 83.659 2.91502 83.659 3.20365V11.7375C83.659 12.0491 83.4063 12.3018 83.0947 12.3018H81.8639ZM88.4462 0.93329C88.7578 0.93329 89.0105 1.18593 89.0105 1.49758V11.7375C89.0105 12.0491 88.7578 12.3018 88.4462 12.3018H87.2101C86.8984 12.3018 86.6458 12.0491 86.6458 11.7375V1.49758C86.6458 1.18593 86.8984 0.93329 87.2101 0.93329H88.4462ZM94.601 12.4683C93.7387 12.4683 92.993 12.2851 92.3638 11.9188C91.7386 11.5487 91.2556 11.0343 90.915 10.3756C90.5747 9.7131 90.4043 8.9452 90.4043 8.0719C90.4043 7.1911 90.5747 6.4214 90.915 5.76269C91.2556 5.10026 91.7386 4.58585 92.3638 4.2195C92.993 3.84944 93.7387 3.6644 94.601 3.6644C95.4632 3.6644 96.207 3.84944 96.8325 4.2195C97.4617 4.58585 97.9464 5.10026 98.2867 5.76269C98.6273 6.4214 98.7974 7.1911 98.7974 8.0719C98.7974 8.9452 98.6273 9.7131 98.2867 10.3756C97.9464 11.0343 97.4617 11.5487 96.8325 11.9188C96.207 12.2851 95.4632 12.4683 94.601 12.4683ZM94.612 10.6365C95.0045 10.6365 95.3318 10.5255 95.5947 10.3034C95.8574 10.0777 96.0552 9.7705 96.1886 9.3819C96.3255 8.9934 96.3941 8.5511 96.3941 8.0552C96.3941 7.5594 96.3255 7.1171 96.1886 6.7285C96.0552 6.34 95.8574 6.0328 95.5947 5.80707C95.3318 5.58135 95.0045 5.46847 94.612 5.46847C94.2161 5.46847 93.8829 5.58135 93.6129 5.80707C93.3466 6.0328 93.1448 6.34 93.0077 6.7285C92.8745 7.1171 92.8079 7.5594 92.8079 8.0552C92.8079 8.5511 92.8745 8.9934 93.0077 9.3819C93.1448 9.7705 93.3466 10.0777 93.6129 10.3034C93.8829 10.5255 94.2161 10.6365 94.612 10.6365ZM102.078 12.3018C101.824 12.3018 101.601 12.1313 101.534 11.8857L99.5206 4.48788C99.4229 4.12898 99.6931 3.7754 100.065 3.7754H101.27C101.533 3.7754 101.761 3.95682 101.82 4.2129L103.032 9.466C103.037 9.4883 103.057 9.5041 103.079 9.5041C103.102 9.5041 103.122 9.4885 103.127 9.4664L104.391 4.20785C104.452 3.95421 104.679 3.7754 104.94 3.7754H106.4C106.66 3.7754 106.886 3.95279 106.948 4.2051L108.233 9.436C108.238 9.4564 108.257 9.4708 108.278 9.4708C108.299 9.4708 108.317 9.456 108.322 9.4352L109.513 4.21424C109.571 3.95751 109.8 3.7754 110.063 3.7754H111.262C111.634 3.7754 111.904 4.12872 111.806 4.48755L109.798 11.8853C109.731 12.1311 109.508 12.3018 109.253 12.3018H107.612C107.358 12.3018 107.135 12.1316 107.068 11.8862L105.73 6.9904C105.722 6.9604 105.694 6.9395 105.663 6.9395C105.632 6.9395 105.605 6.9604 105.597 6.9904L104.259 11.8862C104.191 12.1316 103.969 12.3018 103.714 12.3018H102.078Z" fill="#484C59"/>
</g>
</g>
<defs>
<filter id="filter0_d_15502_6" x="39.0482" y="12.8044" width="26.2891" height="15.1148" filterUnits="userSpaceOnUse" color-interpolation-filters="sRGB">
<feFlood flood-opacity="0" result="BackgroundImageFix"/>
<feColorMatrix in="SourceAlpha" type="matrix" values="0 0 0 0 0 0 0 0 0 0 0 0 0 0 0 0 0 0 127 0" result="hardAlpha"/>
<feOffset dy="2.06377"/>
<feGaussianBlur stdDeviation="2.06377"/>
<feComposite in2="hardAlpha" operator="out"/>
<feColorMatrix type="matrix" values="0 0 0 0 0.482353 0 0 0 0 0.498039 0 0 0 0 0.54902 0 0 0 0.08 0"/>
<feBlend mode="normal" in2="BackgroundImageFix" result="effect1_dropShadow_15502_6"/>
<feBlend mode="normal" in="SourceGraphic" in2="effect1_dropShadow_15502_6" result="shape"/>
</filter>
<filter id="filter1_d_15502_6" x="33.623" y="-3.07332" width="85.1506" height="25.9627" filterUnits="userSpaceOnUse" color-interpolation-filters="sRGB">
<feFlood flood-opacity="0" result="BackgroundImageFix"/>
<feColorMatrix in="SourceAlpha" type="matrix" values="0 0 0 0 0 0 0 0 0 0 0 0 0 0 0 0 0 0 127 0" result="hardAlpha"/>
<feOffset dy="3.47371"/>
<feGaussianBlur stdDeviation="3.47371"/>
<feComposite in2="hardAlpha" operator="out"/>
<feColorMatrix type="matrix" values="0 0 0 0 0.482353 0 0 0 0 0.498039 0 0 0 0 0.54902 0 0 0 0.08 0"/>
<feBlend mode="normal" in2="BackgroundImageFix" result="effect1_dropShadow_15502_6"/>
<feBlend mode="normal" in="SourceGraphic" in2="effect1_dropShadow_15502_6" result="shape"/>
</filter>
<linearGradient id="paint0_linear_15502_6" x1="18.0263" y1="21.1371" x2="23.5012" y2="0.0292897" gradientUnits="userSpaceOnUse">
<stop stop-color="#002B81"/>
<stop offset="1" stop-color="#63DAEC"/>
</linearGradient>
<linearGradient id="paint1_linear_15502_6" x1="28.1425" y1="16.0725" x2="32.6325" y2="0.331462" gradientUnits="userSpaceOnUse">
<stop stop-color="#002B81"/>
<stop offset="1" stop-color="#63DAEC"/>
</linearGradient>
<linearGradient id="paint2_linear_15502_6" x1="5.37558" y1="21.1371" x2="9.0851" y2="-0.76241" gradientUnits="userSpaceOnUse">
<stop stop-color="#002B81"/>
<stop offset="1" stop-color="#63DAEC"/>
</linearGradient>
<clipPath id="clip0_15502_6">
<rect width="112" height="22" fill="white"/>
</clipPath>
</defs>
</svg>
