<svg width="300" height="72" viewBox="0 0 300 72" fill="none" xmlns="http://www.w3.org/2000/svg">
<path d="M15.68 27H6.76L0.44 0.199999H7.16L10.4 15.4L11.32 21.28H11.76L13 15.4L17.48 0.199999H26.4L30.84 15.4L32.08 21.28H32.52L33.44 15.4L36.68 0.199999H43.24L36.88 27H27.96L23.96 13.6L22.08 5.88H21.64L19.76 13.6L15.68 27ZM55.9509 27.4C49.2709 27.4 44.7109 24.12 44.7109 17C44.7109 10.6 49.2309 6.56 55.8309 6.56C62.3909 6.56 66.7509 10 66.7509 16.28C66.7509 17 66.6709 17.52 66.5909 18.2H50.2709C50.4309 21.28 51.8709 22.6 55.7509 22.6C59.3109 22.6 60.5509 21.68 60.5509 19.96V19.56H66.5509V20C66.5509 24.36 62.3109 27.4 55.9509 27.4ZM55.7109 11.24C52.1509 11.24 50.6309 12.44 50.3509 15.04H60.9909C60.8309 12.4 59.2309 11.24 55.7109 11.24ZM75.2953 27H69.2953V0.199999H75.2953V27ZM89.1159 27.4C82.2359 27.4 77.8359 23.32 77.8359 17C77.8359 10.6 82.2359 6.56 89.1159 6.56C95.5559 6.56 99.9559 10 99.9559 15.2V15.76H93.9959V15.44C93.9959 12.88 92.1159 11.96 88.9959 11.96C85.4359 11.96 83.7959 13.28 83.7959 17C83.7959 20.68 85.4359 22 88.9959 22C92.1159 22 93.9959 21.08 93.9959 18.52V18.2H99.9559V18.76C99.9559 23.92 95.5559 27.4 89.1159 27.4ZM113.218 27.4C106.378 27.4 101.778 23.32 101.778 17C101.778 10.6 106.378 6.56 113.218 6.56C120.058 6.56 124.658 10.6 124.658 17C124.658 23.32 120.058 27.4 113.218 27.4ZM113.218 22.08C117.258 22.08 118.698 20.52 118.698 17C118.698 13.48 117.258 11.84 113.218 11.84C109.138 11.84 107.738 13.48 107.738 17C107.738 20.52 109.138 22.08 113.218 22.08ZM133.108 27H127.108V6.96H132.668V13.04H132.988C133.468 9.68 135.468 6.56 140.508 6.56C145.148 6.56 147.508 9.4 147.948 13.12H148.308C148.788 9.72 150.828 6.56 155.988 6.56C161.148 6.56 163.668 9.96 163.668 14.52V27H157.668V16.52C157.668 13.2 156.508 11.96 153.068 11.96C149.428 11.96 148.388 13.4 148.388 16.88V27H142.388V16.52C142.388 13.2 141.228 11.96 137.788 11.96C134.148 11.96 133.108 13.4 133.108 16.88V27ZM177.357 27.4C170.677 27.4 166.117 24.12 166.117 17C166.117 10.6 170.637 6.56 177.237 6.56C183.797 6.56 188.157 10 188.157 16.28C188.157 17 188.077 17.52 187.997 18.2H171.677C171.837 21.28 173.277 22.6 177.157 22.6C180.717 22.6 181.957 21.68 181.957 19.96V19.56H187.957V20C187.957 24.36 183.717 27.4 177.357 27.4ZM177.117 11.24C173.557 11.24 172.037 12.44 171.757 15.04H182.397C182.237 12.4 180.637 11.24 177.117 11.24ZM210.993 27H206.033C201.353 27 198.513 24.8 198.513 19.76V11.92H195.353V6.96H198.513V3.08H204.513V6.96H210.993V11.92H204.513V19.08C204.513 21.08 205.273 21.6 207.393 21.6H210.993V27ZM223.921 27.4C217.081 27.4 212.481 23.32 212.481 17C212.481 10.6 217.081 6.56 223.921 6.56C230.761 6.56 235.361 10.6 235.361 17C235.361 23.32 230.761 27.4 223.921 27.4ZM223.921 22.08C227.961 22.08 229.401 20.52 229.401 17C229.401 13.48 227.961 11.84 223.921 11.84C219.841 11.84 218.441 13.48 218.441 17C218.441 20.52 219.841 22.08 223.921 22.08Z" fill="white"/>
<path d="M15.68 71H6.76L0.44 44.2H7.16L10.4 59.4L11.32 65.28H11.76L13 59.4L17.48 44.2H26.4L30.84 59.4L32.08 65.28H32.52L33.44 59.4L36.68 44.2H43.24L36.88 71H27.96L23.96 57.6L22.08 49.88H21.64L19.76 57.6L15.68 71ZM55.9909 71.4C49.1509 71.4 44.5509 67.32 44.5509 61C44.5509 54.6 49.1509 50.56 55.9909 50.56C62.8309 50.56 67.4309 54.6 67.4309 61C67.4309 67.32 62.8309 71.4 55.9909 71.4ZM55.9909 66.08C60.0309 66.08 61.4709 64.52 61.4709 61C61.4709 57.48 60.0309 55.84 55.9909 55.84C51.9109 55.84 50.5109 57.48 50.5109 61C50.5109 64.52 51.9109 66.08 55.9909 66.08ZM75.8813 71H69.8813V50.96H75.4413V56.28H75.8013C76.3613 53.04 78.4813 50.56 82.5213 50.56C87.0013 50.56 88.8412 53.64 88.8412 57.56V60.88H82.8413V58.8C82.8413 56.6 81.9613 55.64 79.5213 55.64C76.8413 55.64 75.8813 56.88 75.8813 59.4V71ZM97.0141 71H91.0141V44.2H97.0141V58.4H101.574L106.694 50.96H113.814L106.494 60.64L113.694 71H106.614L101.614 63.76H97.0141V71ZM122.872 71H116.872V55.92H114.032V50.96H116.992C117.632 46.92 121.152 44.2 127.312 44.2H129.072V48.56H126.352C123.712 48.56 122.472 49 122.632 50.96H129.072V55.92H122.872V71ZM137.053 71H131.053V44.2H137.053V71ZM150.874 71.4C144.034 71.4 139.434 67.32 139.434 61C139.434 54.6 144.034 50.56 150.874 50.56C157.714 50.56 162.314 54.6 162.314 61C162.314 67.32 157.714 71.4 150.874 71.4ZM150.874 66.08C154.914 66.08 156.354 64.52 156.354 61C156.354 57.48 154.914 55.84 150.874 55.84C146.794 55.84 145.394 57.48 145.394 61C145.394 64.52 146.794 66.08 150.874 66.08ZM176.124 71H168.644L163.164 50.96H169.364L171.724 60.12L172.564 66.36H172.964L174.564 59.52L177.604 50.96H185.324L188.324 59.52L189.924 66.36H190.324L191.204 60.12L193.524 50.96H199.644L193.964 71H186.484L183.044 61.36L181.564 55.84H181.124L179.604 61.36L176.124 71ZM213.42 71H207.42V44.2H221.42C227.62 44.2 231.62 47.72 231.62 53.88C231.62 60.04 227.62 63.6 221.42 63.6H213.42V71ZM220.78 49.6H213.42V58.2H220.78C224.1 58.2 225.66 57.24 225.66 53.88C225.66 50.6 224.1 49.6 220.78 49.6ZM239.748 71H233.748V50.96H239.308V56.28H239.668C240.228 53.04 242.348 50.56 246.388 50.56C250.868 50.56 252.708 53.64 252.708 57.56V60.88H246.708V58.8C246.708 56.6 245.828 55.64 243.388 55.64C240.708 55.64 239.748 56.88 239.748 59.4V71ZM265.561 71.4C258.721 71.4 254.121 67.32 254.121 61C254.121 54.6 258.721 50.56 265.561 50.56C272.401 50.56 277.001 54.6 277.001 61C277.001 67.32 272.401 71.4 265.561 71.4ZM265.561 66.08C269.601 66.08 271.041 64.52 271.041 61C271.041 57.48 269.601 55.84 265.561 55.84C261.481 55.84 260.081 57.48 260.081 61C260.081 64.52 261.481 66.08 265.561 66.08ZM289.572 71.4C282.812 71.4 279.092 68.76 279.092 64.12V64H285.092V64.36C285.092 66.16 286.212 66.64 289.612 66.64C292.812 66.64 293.572 66.12 293.572 64.92C293.572 63.8 292.972 63.48 290.612 63.16L284.972 62.48C280.972 62.04 278.732 60.24 278.732 56.88C278.732 53.36 281.732 50.56 288.612 50.56C295.172 50.56 298.892 53.04 298.892 57.92V58.04H292.892V57.8C292.892 56.16 292.092 55.32 288.412 55.32C285.412 55.32 284.652 55.84 284.652 57.12C284.652 58.16 285.212 58.6 287.852 58.92L292.132 59.44C297.492 60.04 299.492 61.84 299.492 65.16C299.492 68.92 295.772 71.4 289.572 71.4Z" fill="#0B5CAD"/>
</svg>
