<svg width="121" height="24" viewBox="0 0 121 24" fill="none" xmlns="http://www.w3.org/2000/svg">
<path d="M23.4609 10.4504H25.326L26.0863 8.58537H29.6026L30.3629 10.4504H32.2754L28.7116 2.07546H27.0248L23.4609 10.4504ZM26.7397 6.96978L27.8444 4.27315L28.9492 6.96978H26.7397Z" fill="#2F8BFF"/>
<path d="M33.5589 10.4504H35.3883V7.95577H36.7782C38.6433 7.95577 40.1401 6.9579 40.1401 5.03343C40.1401 3.31092 38.9403 2.13486 36.9564 2.13486H33.5589V10.4504ZM35.3883 6.32829V3.7861H36.802C37.7167 3.7861 38.2869 4.22564 38.2869 5.04531C38.2869 5.78184 37.7523 6.32829 36.8376 6.32829H35.3883Z" fill="#2F8BFF"/>
<path d="M41.4939 10.4504H43.3234V7.95577H44.7133C46.5783 7.95577 48.0751 6.9579 48.0751 5.03343C48.0751 3.31092 46.8753 2.13486 44.8915 2.13486H41.4939V10.4504ZM43.3234 6.32829V3.7861H44.737C45.6517 3.7861 46.2219 4.22564 46.2219 5.04531C46.2219 5.78184 45.6874 6.32829 44.7727 6.32829H43.3234Z" fill="#2F8BFF"/>
<path d="M49.429 10.4504H55.4044V8.78732H51.2584V2.13486H49.429V10.4504Z" fill="#2F8BFF"/>
<path d="M56.8672 10.4504H58.6966V2.13486H56.8672V10.4504Z" fill="#2F8BFF"/>
<path d="M60.062 10.4504H61.9271L62.6873 8.58537H66.2036L66.9639 10.4504H68.8765L65.3127 2.07546H63.6258L60.062 10.4504ZM63.3407 6.96978L64.4455 4.27315L65.5503 6.96978H63.3407Z" fill="#2F8BFF"/>
<path d="M70.16 10.4504H71.9656V5.16411L75.9927 10.4504H77.5489V2.13486H75.7433V7.25488L71.8468 2.13486H70.16V10.4504Z" fill="#2F8BFF"/>
<path d="M83.4416 10.593C85.0453 10.593 85.9956 10.0941 86.851 9.17934L85.6868 7.93201C85.0334 8.52598 84.4513 8.90612 83.501 8.90612C82.0754 8.90612 81.0895 7.71818 81.0895 6.29265C81.0895 4.84336 82.0992 3.67918 83.501 3.67918C84.4513 3.67918 84.9978 4.02369 85.6393 4.60578L86.7322 3.34656C85.96 2.58628 85.0809 1.99231 83.5128 1.99231C80.9588 1.99231 79.1769 3.92865 79.1769 6.29265C79.1769 8.70417 80.9944 10.593 83.4416 10.593Z" fill="#2F8BFF"/>
<path d="M88.3155 10.4504H94.6472V8.82296H90.133V7.07669H94.0532V5.44921H90.133V3.76234H94.5878V2.13486H88.3155V10.4504Z" fill="#2F8BFF"/>
<path d="M23.7188 22.5079H25.5424V19.8469H26.9516L28.7516 22.5079H30.8832L28.8582 19.5381C29.9122 19.146 30.6345 18.3026 30.6345 16.9602C30.6345 16.1524 30.3859 15.4991 29.924 15.0358C29.3793 14.4893 28.5622 14.1923 27.5082 14.1923H23.7188V22.5079ZM25.5424 18.2313V15.8436H27.3543C28.2424 15.8436 28.7872 16.2475 28.7872 17.0315C28.7872 17.7562 28.278 18.2313 27.3898 18.2313H25.5424Z" fill="#24262C"/>
<path d="M32.2765 22.5079H38.5884V20.8804H34.0884V19.1342H37.9963V17.5067H34.0884V15.8198H38.5292V14.1923H32.2765V22.5079Z" fill="#24262C"/>
<path d="M40.2098 22.5079H42.0335V20.0132H43.419C45.2782 20.0132 46.7703 19.0154 46.7703 17.0909C46.7703 15.3684 45.5743 14.1923 43.5967 14.1923H40.2098V22.5079ZM42.0335 18.3858V15.8436H43.4427C44.3546 15.8436 44.923 16.2831 44.923 17.1028C44.923 17.8393 44.3901 18.3858 43.4782 18.3858H42.0335Z" fill="#24262C"/>
<path d="M46.5768 22.5079H48.436L49.1939 20.6428H52.6992L53.4571 22.5079H55.3636L51.811 14.1329H50.1294L46.5768 22.5079ZM49.8452 19.0272L50.9465 16.3306L52.0478 19.0272H49.8452Z" fill="#24262C"/>
<path d="M56.7259 22.5079H58.5496V14.1923H56.7259V22.5079Z" fill="#24262C"/>
<path d="M60.6213 22.5079H62.445V19.8469H63.8542L65.6542 22.5079H67.7857L65.7607 19.5381C66.8147 19.146 67.5371 18.3026 67.5371 16.9602C67.5371 16.1524 67.2884 15.4991 66.8265 15.0358C66.2818 14.4893 65.4647 14.1923 64.4107 14.1923H60.6213V22.5079ZM62.445 18.2313V15.8436H64.2568C65.1449 15.8436 65.6897 16.2475 65.6897 17.0315C65.6897 17.7562 65.1805 18.2313 64.2923 18.2313H62.445Z" fill="#24262C"/>
<path d="M72.7294 22.5079H79.0412V20.8804H74.5412V19.1342H78.4491V17.5067H74.5412V15.8198H78.982V14.1923H72.7294V22.5079Z" fill="#24262C"/>
<path d="M80.035 22.5079H82.1074L83.9784 19.6569L85.8376 22.5079H87.9692L85.0798 18.2551L87.8508 14.1923H85.7784L84.0258 16.889L82.285 14.1923H80.1534L82.9245 18.2788L80.035 22.5079Z" fill="#24262C"/>
<path d="M89.3361 22.5079H91.1598V20.0132H92.5453C94.4045 20.0132 95.8966 19.0154 95.8966 17.0909C95.8966 15.3684 94.7005 14.1923 92.7229 14.1923H89.3361V22.5079ZM91.1598 18.3858V15.8436H92.569C93.4808 15.8436 94.0492 16.2831 94.0492 17.1028C94.0492 17.8393 93.5163 18.3858 92.6045 18.3858H91.1598Z" fill="#24262C"/>
<path d="M97.2462 22.5079H103.558V20.8804H99.0581V19.1342H102.966V17.5067H99.0581V15.8198H103.499V14.1923H97.2462V22.5079Z" fill="#24262C"/>
<path d="M105.18 22.5079H107.003V19.8469H108.412L110.212 22.5079H112.344L110.319 19.5381C111.373 19.146 112.095 18.3026 112.095 16.9602C112.095 16.1524 111.847 15.4991 111.385 15.0358C110.84 14.4893 110.023 14.1923 108.969 14.1923H105.18V22.5079ZM107.003 18.2313V15.8436H108.815C109.703 15.8436 110.248 16.2475 110.248 17.0315C110.248 17.7562 109.739 18.2313 108.851 18.2313H107.003Z" fill="#24262C"/>
<path d="M115.668 22.5079H117.491V15.8792H120.014V14.1923H113.145V15.8792H115.668V22.5079Z" fill="#24262C"/>
<path fill-rule="evenodd" clip-rule="evenodd" d="M0.693129 8.53769C0.251361 8.9384 0 9.50306 0 10.0947V20.2608C0 21.4296 0.961515 22.377 2.1476 22.377H15.4237C16.6098 22.377 17.5713 21.4296 17.5713 20.2608V18.2731L12.1952 18.4649L10.3622 19.352L10.514 19.8544C10.5743 20.0256 10.7093 20.423 10.5791 20.7308C10.449 21.0386 10.2164 21.2227 10.0585 21.2759L9.58125 21.4362C9.27754 21.5217 8.99192 21.4719 8.88707 21.4362C8.46189 21.3422 8.15556 20.9234 8.08443 20.7094L7.81327 19.8009C8.00417 19.8095 8.30136 19.7919 8.64845 19.7261C8.93046 19.6727 9.59209 19.5209 9.89579 18.9993C10.1995 18.4777 9.89941 17.8699 9.7114 17.6312C9.85892 16.7591 9.48363 16.2916 9.27754 16.1669L9.32093 15.718C9.70273 16.0259 10.3839 16.2596 10.6767 16.338L10.7852 16.0601C9.56172 15.7693 8.87984 14.749 8.69184 14.2751L7.74819 14.4034V15.0767C7.73255 15.5152 7.10102 15.6112 6.84793 15.5791C6.74308 15.262 6.49434 14.5487 6.33815 14.2324C6.18196 13.916 6.32251 13.7196 6.41408 13.6552L7.79158 12.5436C8.17726 12.2018 8.57858 12.3301 8.8003 12.4261L12.0326 13.8369L17.5713 13.0054V10.0337C17.5713 9.43398 17.3131 8.86245 16.8609 8.46113L10.1844 2.53593C9.36086 1.80505 8.10817 1.81176 7.29273 2.55141L0.693129 8.53769ZM8.80721 5.53242C9.31039 5.53242 9.71831 5.13045 9.71831 4.63461C9.71831 4.13876 9.31039 3.73679 8.80721 3.73679C8.30402 3.73679 7.8961 4.13876 7.8961 4.63461C7.8961 5.13045 8.30402 5.53242 8.80721 5.53242ZM9.03225 18.0483L6.46163 18.401C6.53973 18.991 6.91357 19.1884 7.09073 19.2133C8.0886 19.3844 9.01055 19.0851 9.33595 18.8927C9.86743 18.4545 9.40103 18.0163 9.03225 18.0483ZM6.87115 9.01677L6.37221 7.14633L6.87115 6.95394L7.81479 7.73418L8.22696 9.46568L7.70632 10.6628L7.96664 11.6888L5.91666 13.2921L5.35264 11.4537L4.19207 10.5452L3.66059 9.36948L3.9209 7.73418L4.41984 7.6273L5.07063 9.41223L6.87115 9.01677ZM5.82457 13.741L6.19335 14.8739L5.04363 15.0235C4.97855 14.6708 5.16511 13.9291 5.82457 13.741ZM6.32097 15.3549L6.64637 16.0282C7.13446 16.0603 7.67045 15.8425 7.79609 15.7717C7.87202 15.729 8.03472 15.6114 8.04556 15.5045C8.06199 15.3426 8.17211 15.2302 8.2408 15.1946C8.27334 15.1777 8.37679 15.1531 8.56619 15.1946C8.76143 15.2373 8.83374 15.3727 8.8482 15.4404L8.84941 15.4452C8.85451 15.4645 8.86799 15.5155 8.8482 15.7397C8.82694 15.9806 8.61681 16.0817 8.52281 16.1031L6.01727 16.6054C5.73093 16.6995 5.58703 16.5662 5.55088 16.4878C5.5111 16.3667 5.41204 16.0689 5.33395 15.8465C5.25585 15.6242 5.44603 15.5188 5.55088 15.4938L6.32097 15.3549ZM8.75227 16.5199C9.07767 16.4665 9.55491 17.1184 8.95835 17.4818C8.88966 17.5139 8.59608 17.5994 7.97132 17.6849C7.73397 17.7174 7.50006 17.7684 7.28339 17.8156C6.92975 17.8927 6.62205 17.9598 6.42028 17.92C6.20335 17.8987 5.72611 17.4177 6.31181 17.0757L8.75227 16.5199Z" fill="#2F8BFF"/>
</svg>
